<svg width="326" height="315" viewBox="0 0 326 315" fill="none" xmlns="http://www.w3.org/2000/svg">
<path d="M216.404 149.805L325.213 99.0385L207.934 127.025C202.722 121.168 196.206 117.262 187.736 115.31C187.085 114.659 187.085 114.659 186.433 114.008C186.433 112.706 186.433 111.405 186.433 110.103C186.433 97.7368 179.918 87.3231 170.796 81.4654L190.342 13.1255L154.507 75.6077C153.856 75.6077 153.204 75.6077 152.553 75.6077C139.522 75.6077 127.794 82.7671 122.581 93.8316C119.975 92.5299 117.369 91.8791 114.763 91.2282L84.7915 0.759277L95.8678 95.1333C90.6554 98.3876 86.7461 103.594 84.7915 109.452C84.1399 109.452 84.1399 109.452 83.4884 109.452C64.5934 109.452 48.9563 125.073 48.9563 143.948C48.9563 157.615 57.4264 169.982 69.1543 175.189C67.8512 177.141 67.1996 179.094 66.5481 181.046L0.0900879 202.525L66.5481 196.016C69.1543 205.128 75.6698 212.287 84.7915 214.24C84.1399 216.843 83.4884 219.447 83.4884 222.05C83.4884 236.369 95.2162 248.084 109.55 248.084C118.02 248.084 125.839 244.179 130.4 237.671C134.309 240.274 138.87 241.576 144.082 241.576C147.34 241.576 151.249 240.925 153.856 239.623L203.373 314.472L168.841 229.21C172.099 229.86 174.705 230.511 177.963 230.511C196.858 230.511 212.495 214.891 212.495 196.016C212.495 187.555 209.237 180.395 204.677 174.538C212.495 168.68 216.404 159.568 216.404 149.805Z" fill="#FCE0A4"/>
<g opacity="0.25">
<g opacity="0.25">
<path opacity="0.25" d="M120.627 244.179C106.292 244.179 94.5646 232.464 94.5646 218.145C94.5646 215.541 95.2161 212.938 95.8677 210.334C84.7914 207.08 76.3212 197.317 76.3212 184.951C76.3212 179.744 77.6243 175.188 80.2305 170.632C68.5026 165.425 60.0325 153.059 60.0325 139.391C60.0325 127.676 65.8965 117.913 74.3666 111.404C60.0325 115.309 50.2593 128.977 50.2593 143.947C50.2593 157.615 58.7294 169.981 70.4573 175.188C67.8511 179.093 66.548 184.3 66.548 189.507C66.548 201.873 75.0181 211.636 86.0945 214.89C85.4429 217.494 84.7914 220.097 84.7914 222.701C84.7914 237.02 96.5193 248.735 110.853 248.735C117.369 248.735 122.581 246.782 127.142 242.877C125.187 244.179 123.233 244.179 120.627 244.179Z" fill="#222221"/>
</g>
</g>
</svg>
