<svg width="307" height="315" viewBox="0 0 307 315" fill="none" xmlns="http://www.w3.org/2000/svg">
<path d="M306.817 125.82C306.817 99.7859 288.573 78.3077 263.815 72.45C263.815 71.7992 263.815 71.7991 263.815 71.1483C263.815 37.9547 237.101 10.6188 203.22 10.6188C190.189 10.6188 177.81 14.5239 168.037 21.6833C154.354 8.66617 135.459 0.205078 114.61 0.205078C72.259 0.205078 37.727 34.7004 37.727 77.006C37.727 80.9111 38.3785 84.1654 38.3785 88.0706C25.3475 99.1351 16.8774 115.406 16.8774 134.281C16.8774 146.648 20.7866 158.363 27.3021 168.126C11.0134 182.445 0.588623 203.272 0.588623 226.703C0.588623 269.008 35.1208 303.504 77.4715 303.504C85.29 303.504 93.1086 302.202 100.276 300.249C110.7 309.361 124.383 314.568 139.369 314.568C152.4 314.568 164.779 310.012 175.204 302.853C185.629 308.711 197.356 311.965 209.736 311.965C248.177 311.965 279.452 280.724 279.452 242.323C279.452 240.371 279.452 237.767 279.452 235.815C295.74 226.052 306.165 209.13 306.165 188.953C306.165 177.238 302.256 166.173 295.74 157.061C302.908 148.6 306.817 137.536 306.817 125.82Z" fill="#FFBF08"/>
<g opacity="0.25">
<g opacity="0.25">
<path opacity="0.25" d="M224.721 298.948C212.342 298.948 200.614 295.694 190.189 289.836C180.416 296.996 168.037 301.552 154.354 301.552C139.368 301.552 125.686 295.694 115.261 287.233C108.094 289.185 100.276 290.487 92.457 290.487C50.1063 290.487 15.5742 255.992 15.5742 213.686C15.5742 190.255 25.999 169.428 42.2877 155.109C35.7722 145.346 31.8629 133.631 31.8629 121.265C31.8629 103.041 40.333 86.1185 53.364 75.0539C52.7125 71.1488 52.7125 67.8945 52.7125 63.9893C52.7125 44.4637 59.8795 26.8906 71.6074 13.2227C51.4094 26.8906 37.7269 50.3214 37.7269 77.0065C37.7269 80.9116 38.3784 84.1659 38.3784 88.071C25.3474 99.1356 16.8773 115.407 16.8773 134.282C16.8773 146.648 20.7866 158.363 27.3021 168.126C11.0133 182.445 0.588562 203.272 0.588562 226.703C0.588562 269.009 35.1207 303.504 77.4714 303.504C85.2899 303.504 93.1085 302.202 100.276 300.25C110.7 309.362 124.383 314.569 139.369 314.569C152.399 314.569 164.779 310.013 175.204 302.853C185.628 308.711 197.356 311.965 209.736 311.965C231.237 311.965 250.132 302.202 263.163 287.233C252.086 295.043 239.055 298.948 224.721 298.948Z" fill="#222221"/>
</g>
</g>
</svg>
