<svg width="250" height="197" viewBox="0 0 250 197" fill="none" xmlns="http://www.w3.org/2000/svg">
<path d="M112.221 148.017C121.994 143.461 129.161 134.349 131.767 123.936L249.697 114.824L132.419 103.759C129.161 91.3927 120.039 81.6299 108.311 77.0739L133.07 39.9751L92.674 74.4705C88.7647 62.7551 77.6884 54.294 64.6574 54.294C56.8388 54.294 50.3234 57.5483 44.4594 62.1043L0.154053 0.272949L34.6862 81.6299C34.6862 82.2808 34.6862 82.9316 34.6862 83.5825C18.3975 83.5825 5.36647 96.5996 5.36647 112.871C5.36647 125.237 12.5335 135.651 23.6098 140.207C24.2614 146.716 26.216 151.922 29.4738 157.129L9.92729 196.831L35.9893 164.939C43.1563 171.448 52.278 175.353 62.7028 175.353C75.7338 175.353 86.8101 168.845 93.9772 159.733L161.087 196.831C161.087 197.482 129.161 164.289 112.221 148.017Z" fill="#F2E28A"/>
<g opacity="0.25">
<path opacity="0.25" d="M71.1728 171.448C50.9748 171.448 34.0345 155.827 32.7314 135.651C22.3066 131.095 14.4879 120.681 14.4879 108.315C14.4879 98.5518 19.0488 90.0906 26.2159 84.8838C14.488 88.7889 6.01782 99.8534 6.01782 112.871C6.01782 125.237 13.1848 135.651 24.2612 140.207C26.2158 160.383 42.5046 176.004 62.7026 176.004C71.1728 176.004 78.3398 173.4 84.8553 168.844C80.2945 170.797 75.7337 171.448 71.1728 171.448Z" fill="#222221"/>
</g>
<path opacity="0.25" d="M43.8076 95.9489C43.8076 86.1861 51.6262 77.725 62.0509 77.725C67.2633 77.725 71.8242 79.6775 75.0819 83.5827C71.8242 78.3758 65.9602 74.4707 59.4447 74.4707C49.6715 74.4707 41.2014 82.281 41.2014 92.6946C41.2014 97.2506 43.156 101.807 46.4138 105.061C44.4591 102.457 43.8076 99.2032 43.8076 95.9489Z" fill="#222221"/>
<path opacity="0.25" d="M84.8552 91.3926C79.6428 91.3926 75.082 93.996 71.8242 97.2502C74.4304 95.2977 78.3397 93.996 82.249 93.996C92.0222 93.996 100.492 102.457 100.492 112.22C100.492 116.776 98.5376 121.332 95.2799 124.586C99.8407 121.332 103.098 115.474 103.098 109.617C103.098 99.8537 95.2799 91.3926 84.8552 91.3926Z" fill="#222221"/>
<path opacity="0.25" d="M64.0057 133.698C60.7479 139.556 52.9293 141.509 47.0654 138.254C46.4138 137.604 45.1108 136.953 44.4592 136.302C45.1108 138.905 47.0654 141.509 49.6716 143.461C55.5355 146.716 62.7025 144.763 66.6118 138.905C69.218 134.349 68.5665 127.841 64.6572 123.936C66.6119 127.19 65.9603 130.444 64.0057 133.698Z" fill="#222221"/>
<path opacity="0.25" d="M107.008 142.161C105.705 143.462 104.402 144.113 103.099 144.764C95.9316 147.367 88.1129 144.113 85.5067 137.605C84.2036 134.35 84.2036 130.445 85.5067 127.191C81.5974 131.096 79.6427 136.954 82.2489 142.811C84.8552 149.971 93.3254 153.225 99.8409 149.971C103.099 148.018 105.705 145.415 107.008 142.161Z" fill="#222221"/>
</svg>
