<svg width="328" height="353" viewBox="0 0 328 353" fill="none" xmlns="http://www.w3.org/2000/svg">
<path d="M327.242 259.512L281.633 228.271C282.936 223.715 283.588 219.159 283.588 214.603C283.588 195.077 271.86 177.504 254.92 170.345C258.829 164.487 260.784 157.979 260.784 150.168C260.784 133.897 251.01 120.88 236.676 115.022L283.588 69.4623L234.07 97.4492C231.464 79.2252 215.827 64.9064 196.932 64.9064C184.552 64.9064 173.476 70.7641 166.961 79.876C161.097 76.6217 154.581 74.6692 148.066 74.6692C139.595 74.6692 132.428 77.2726 125.913 81.8286L61.4096 0.47168L111.579 92.8931C107.67 91.5914 103.109 90.9406 99.1994 90.9406C72.4859 90.9406 50.3332 113.07 50.3332 139.755C50.3332 143.009 50.9848 146.914 51.6363 150.168L0.16394 142.358L58.1518 165.789C60.1065 168.392 62.0611 171.647 64.6673 173.599C62.7127 178.155 62.0611 182.711 62.0611 187.918C62.0611 198.983 66.622 208.745 74.4406 215.905C73.789 219.159 73.1374 222.413 73.1374 225.668C73.1374 238.034 79.0014 249.098 88.7746 256.258C88.7746 258.21 88.1231 260.163 88.1231 262.116C88.1231 280.99 99.1994 297.262 114.837 305.723L99.1994 352.585L131.777 310.93C133.732 310.93 135.686 311.581 137.641 311.581C156.536 311.581 172.824 301.167 180.643 285.546C185.855 288.15 191.719 290.102 198.235 290.102C215.175 290.102 229.509 279.038 234.07 263.417C234.722 263.417 235.373 263.417 236.025 263.417C252.313 263.417 266.648 255.607 275.769 243.241L327.242 259.512Z" fill="#FFD671"/>
<g opacity="0.25">
<path opacity="0.25" d="M148.717 306.373C122.004 306.373 99.8509 284.244 99.8509 257.559C99.8509 255.606 99.8509 253.654 100.502 251.701C91.3808 245.192 84.8653 234.128 84.8653 221.111C84.8653 217.856 85.5168 214.602 86.1684 211.348C78.3498 204.188 73.789 194.426 73.789 183.361C73.789 178.154 75.092 173.598 76.3951 169.042C67.925 159.93 62.0611 148.215 62.0611 134.547C62.0611 116.974 71.8343 101.353 86.1684 92.8921C65.9703 98.7498 50.9847 117.625 50.9847 139.754C50.9847 153.422 56.1971 165.137 65.3188 174.249C63.3642 178.805 62.7126 183.361 62.7126 188.568C62.7126 199.632 67.2734 209.395 75.092 216.555C74.4405 219.809 73.789 223.063 73.789 226.318C73.789 238.684 79.6529 249.748 89.4261 256.908C89.4261 258.86 88.7746 260.813 88.7746 262.766C88.7746 289.451 110.927 311.58 137.641 311.58C146.762 311.58 155.233 308.976 162.4 304.42C157.839 305.722 153.278 306.373 148.717 306.373Z" fill="#222221"/>
</g>
</svg>
