<svg width="632" height="673" viewBox="0 0 632 673" fill="none" xmlns="http://www.w3.org/2000/svg">
<path d="M500.093 403.762L631.706 424.59C631.706 424.59 545.702 393.349 494.881 375.776C489.669 362.108 480.547 350.392 469.471 341.28C475.986 331.518 479.244 319.802 479.244 307.436C479.244 272.29 450.576 243.652 415.392 243.652C415.392 243.652 415.392 243.652 414.741 243.652C414.089 234.54 411.483 226.079 408.225 218.269L435.59 172.058L398.452 201.997C382.815 181.17 358.707 167.502 330.691 167.502C317.008 167.502 304.629 170.756 293.552 175.963C283.779 160.993 266.187 151.23 247.292 151.23L227.746 0.231934L218.624 158.39C208.199 164.248 199.729 174.01 195.168 185.075C188.653 182.472 182.137 181.17 174.97 181.17C143.696 181.17 118.286 206.553 118.286 237.794C118.286 238.445 118.286 239.096 118.286 239.747C105.906 244.303 94.8299 252.113 86.3597 261.876L0.355225 228.682L74.6318 278.798C68.7679 290.514 64.8586 303.531 64.8586 317.85C64.8586 349.741 82.4504 377.077 108.512 391.396C98.7392 401.81 92.8752 415.478 92.8752 430.448C92.8752 436.956 94.1783 442.814 96.133 448.672L46.6152 468.197L105.255 466.245C108.512 470.15 111.77 473.404 115.679 476.007C112.422 483.818 110.467 492.279 110.467 501.391C110.467 536.537 139.135 565.175 174.319 565.175C191.259 565.175 206.245 558.666 217.973 547.602C226.443 558.015 238.171 565.175 251.853 568.429L254.459 672.566L276.612 569.731C292.901 567.127 307.235 558.666 317.008 546.3C329.388 553.459 343.722 557.364 358.707 557.364C384.118 557.364 406.922 546.3 421.908 528.727L464.258 550.856L431.029 516.361C437.545 505.296 442.106 491.628 442.757 477.96C475.986 469.499 500.093 439.56 500.093 403.762Z" fill="#FF8F01"/>
<g opacity="0.25">
<path opacity="0.25" d="M376.951 541.094C361.965 541.094 347.631 537.189 335.252 530.029C323.524 544.348 305.28 554.111 285.082 554.111C265.536 554.111 248.596 545.65 236.868 531.982C225.14 542.395 210.154 549.555 193.214 549.555C158.03 549.555 129.362 520.917 129.362 485.771C129.362 476.659 131.317 468.198 134.575 460.388C120.241 449.974 111.119 433.702 111.119 414.828C111.119 399.858 116.983 386.19 126.756 375.776C100.694 361.457 83.1023 334.122 83.1023 302.23C83.1023 283.355 88.9662 266.433 99.391 252.114C78.5414 267.734 65.5104 291.816 65.5104 319.803C65.5104 351.695 83.1023 379.031 109.164 393.349C99.391 403.763 93.527 417.431 93.527 432.401C93.527 451.276 102.649 467.547 116.983 477.961C113.725 485.771 111.77 494.232 111.77 503.344C111.77 538.49 140.439 567.128 175.622 567.128C192.562 567.128 207.548 560.619 219.276 549.555C231.004 563.223 248.596 571.684 267.491 571.684C287.689 571.684 305.932 562.572 317.66 547.602C330.039 554.762 344.373 558.667 359.359 558.667C387.376 558.667 411.483 544.999 427.12 524.822C412.786 534.585 395.846 541.094 376.951 541.094Z" fill="#222221"/>
</g>
</svg>
