<svg width="810" height="884" viewBox="0 0 810 884" fill="none" xmlns="http://www.w3.org/2000/svg">
<path d="M396.142 1.3017V0C396.142 0 396.142 2.47312e-06 396.142 0.650858C396.142 2.47312e-06 396.142 0 396.142 0V1.3017C392.232 14.3188 364.216 124.313 395.49 124.964C427.416 124.313 399.399 14.3188 396.142 1.3017Z" fill="#FF5906"/>
<path d="M405.264 84.611C405.264 104.137 401.354 119.757 396.142 119.757C390.929 119.757 387.02 104.137 387.02 84.611C387.02 65.0854 390.929 49.4648 396.142 49.4648C401.354 49.4648 405.264 65.0854 405.264 84.611Z" fill="#FF8F01"/>
<path d="M402.657 84.6109C402.657 98.9297 399.4 109.994 395.49 109.994C391.581 109.994 388.323 98.2789 388.323 84.6109C388.323 70.2921 391.581 59.2275 395.49 59.2275C399.4 59.2275 402.657 70.2921 402.657 84.6109Z" fill="#FFBF08"/>
<path d="M211.101 881.91L210.45 883.211C210.45 883.211 210.45 883.211 211.101 882.56C211.101 883.211 211.101 883.211 211.101 883.211V881.91C219.572 871.496 288.636 781.678 259.968 768.01C230.648 756.294 213.056 868.893 211.101 881.91Z" fill="#FF5906"/>
<path d="M235.86 801.854C243.679 784.281 253.452 771.264 258.013 773.216C262.574 775.169 260.619 791.44 252.801 809.014C244.982 826.587 235.209 839.604 230.648 837.651C225.436 835.699 228.042 819.427 235.86 801.854Z" fill="#FF8F01"/>
<path d="M237.815 802.505C243.679 789.488 250.846 780.376 254.103 781.678C257.361 782.98 256.058 794.695 250.194 807.712C244.33 820.729 237.163 829.841 233.905 828.539C230.648 827.238 232.602 815.522 237.815 802.505Z" fill="#FFBF08"/>
<path d="M684.126 104.789L684.778 104.138C684.778 104.138 684.778 104.138 684.126 104.789C684.126 104.138 684.778 103.487 684.778 103.487L684.126 104.789C675.656 111.948 604.637 171.176 625.487 186.797C647.64 201.116 680.869 115.203 684.126 104.789Z" fill="#FF5906"/>
<path d="M651.549 164.668C642.427 177.685 632.002 186.146 628.744 183.543C625.487 180.94 630.047 168.573 639.169 155.556C648.291 142.539 658.716 134.078 661.974 136.682C665.231 139.285 660.67 151.651 651.549 164.668Z" fill="#FF8F01"/>
<path d="M649.594 163.365C643.078 172.477 635.26 178.985 633.305 177.033C630.699 175.08 633.956 165.968 640.472 156.856C646.987 147.744 654.806 141.236 656.761 143.188C659.367 144.49 656.109 153.602 649.594 163.365Z" fill="#FFBF08"/>
<path d="M3.90913 169.873L3.25757 169.222C3.25757 169.222 3.25758 169.222 3.90913 169.873C3.25758 169.222 3.25757 169.222 3.25757 169.222L3.90913 169.873C14.3339 173.778 98.3837 211.527 83.3981 232.355C66.4578 251.88 10.4246 178.334 3.90913 169.873Z" fill="#FF5906"/>
<path d="M52.7755 217.384C65.1549 227.147 77.5344 232.354 80.1406 229.1C82.7467 225.845 74.9282 215.432 62.5487 205.669C50.1693 195.906 37.7898 190.699 35.1836 193.953C32.5774 197.208 40.396 207.621 52.7755 217.384Z" fill="#FF8F01"/>
<path d="M54.0781 216.084C63.1998 223.243 71.6699 227.148 73.6246 224.545C75.5792 221.941 69.7153 214.131 60.5936 206.972C51.4719 199.812 43.0017 195.907 41.0471 198.51C39.0924 201.114 44.9564 208.924 54.0781 216.084Z" fill="#FFBF08"/>
<path d="M12.3793 579.261H11.7278C11.7278 579.261 11.7278 579.261 12.3793 579.261C11.7278 579.261 11.7278 579.261 11.7278 579.261H12.3793C20.1979 580.563 87.3075 589.024 85.3528 570.149C82.7466 551.274 20.1979 576.007 12.3793 579.261Z" fill="#FF5906"/>
<path d="M61.2455 567.547C72.3219 566.245 82.0951 567.547 82.7467 570.801C83.3982 574.055 74.2765 577.309 62.5486 579.262C51.4723 580.564 41.699 579.262 41.0475 576.008C40.3959 572.103 49.5176 568.848 61.2455 567.547Z" fill="#FF8F01"/>
<path d="M61.2452 568.847C69.7154 567.545 76.2308 568.847 76.8824 570.799C76.8824 572.752 70.3669 576.006 62.5483 576.657C54.0782 577.959 47.5627 576.657 46.9111 574.704C46.2596 572.752 52.7751 570.148 61.2452 568.847Z" fill="#FFBF08"/>
<path d="M7.81829 345.604H7.16675C7.16675 344.953 7.81829 344.953 7.81829 345.604C7.16674 345.604 7.16675 345.604 7.16675 345.604H7.81829C14.3338 350.16 71.0185 386.608 77.534 369.035C83.398 350.811 16.2884 345.604 7.81829 345.604Z" fill="#FF5906"/>
<path d="M56.6845 356.017C67.7609 359.922 75.5795 365.129 74.9279 367.733C73.6248 370.987 64.5031 370.336 53.4268 366.431C42.3504 362.526 34.5318 357.319 35.1834 354.715C36.4865 351.461 45.6082 352.112 56.6845 356.017Z" fill="#FF8F01"/>
<path d="M56.0331 357.319C63.8517 359.922 69.7156 363.828 69.0641 365.78C68.4125 367.733 61.2455 367.733 53.4269 365.129C45.6083 362.526 39.7443 358.621 40.3959 356.668C41.699 354.065 48.2145 354.716 56.0331 357.319Z" fill="#FFBF08"/>
<path d="M808.572 482.935H809.224C809.875 482.935 809.224 482.935 808.572 482.935C809.224 482.935 809.224 482.935 809.224 482.935H808.572C800.753 480.331 737.553 458.202 734.947 477.077C734.295 495.301 800.753 484.237 808.572 482.935Z" fill="#FF5906"/>
<path d="M759.055 484.236C747.327 483.585 738.205 480.33 738.857 477.076C738.857 473.822 748.63 472.52 760.358 473.171C772.086 473.822 781.207 477.076 780.556 480.33C779.904 483.585 770.782 484.886 759.055 484.236Z" fill="#FF8F01"/>
<path d="M759.054 482.935C750.584 482.284 744.069 479.68 744.069 477.728C744.069 475.775 751.236 474.474 759.706 475.124C768.176 475.775 774.692 478.379 774.692 480.331C774.692 482.284 767.525 483.586 759.054 482.935Z" fill="#FFBF08"/>
<path d="M647.64 786.884C648.291 787.535 648.291 787.535 647.64 786.884C648.291 787.535 648.291 787.535 647.64 786.884C645.034 779.074 618.972 717.243 603.986 727.656C589 740.022 641.776 782.328 647.64 786.884Z" fill="#FF5906"/>
<path d="M613.759 751.087C606.592 741.975 603.334 732.863 605.94 730.911C608.546 728.958 615.714 734.816 622.881 743.928C630.048 753.04 633.305 762.152 630.699 764.104C628.093 766.057 620.926 760.199 613.759 751.087Z" fill="#FF8F01"/>
<path d="M615.062 749.786C609.85 743.277 607.244 736.768 609.199 735.467C611.153 734.165 616.366 738.721 621.578 745.23C626.79 751.738 629.397 758.247 627.442 759.548C625.487 760.85 620.275 756.294 615.062 749.786Z" fill="#FFBF08"/>
<path d="M92.5201 147.094C92.5201 150.999 89.2624 154.253 85.3531 154.253C81.4438 154.253 78.186 150.999 78.186 147.094C78.186 143.189 81.4438 139.935 85.3531 139.935C89.2624 140.585 92.5201 143.189 92.5201 147.094Z" fill="#FF5906"/>
<path d="M259.317 100.883C259.317 102.185 258.013 104.137 256.059 104.137C254.104 104.137 253.453 102.185 253.453 100.883C253.453 99.5815 254.756 97.6289 256.71 97.6289C258.665 97.6289 259.317 98.9306 259.317 100.883Z" fill="#FF5906"/>
<path d="M699.112 213.481C699.112 214.783 697.809 216.735 695.854 216.735C694.551 216.735 692.596 215.433 692.596 213.481C692.596 211.528 693.9 210.227 695.854 210.227C697.809 210.877 699.112 212.179 699.112 213.481Z" fill="#FF5906"/>
<path d="M621.578 210.878C621.578 212.18 620.275 214.132 618.32 214.132C617.017 214.132 615.062 212.83 615.062 210.878C615.062 208.925 616.366 207.624 618.32 207.624C620.275 207.624 621.578 208.925 621.578 210.878Z" fill="#FF5906"/>
<path d="M556.423 117.805C556.423 119.107 555.12 121.059 553.165 121.059C551.862 121.059 549.907 119.758 549.907 117.805C549.907 116.503 551.21 114.551 553.165 114.551C555.12 114.551 556.423 115.852 556.423 117.805Z" fill="#FF5906"/>
<path d="M300.364 801.854C300.364 803.156 299.061 805.108 297.107 805.108C295.152 805.108 293.849 803.807 293.849 801.854C293.849 800.552 295.152 798.6 297.107 798.6C299.061 798.6 300.364 799.902 300.364 801.854Z" fill="#FF5906"/>
<path d="M88.6107 501.809C88.6107 503.111 87.3076 505.064 85.353 505.064C84.0499 505.064 82.0952 503.762 82.0952 501.809C82.0952 500.508 83.3983 498.555 85.353 498.555C87.3076 499.206 88.6107 500.508 88.6107 501.809Z" fill="#FF5906"/>
<path d="M41.0475 419.802C41.0475 421.103 39.7444 423.056 37.7897 423.056C36.4866 423.056 34.532 421.754 34.532 419.802C34.532 418.5 35.8351 416.547 37.7897 416.547C39.7444 416.547 41.0475 417.849 41.0475 419.802Z" fill="#FF5906"/>
<path d="M78.8373 444.534C78.8373 445.835 77.5342 447.788 75.5795 447.788C74.2764 447.788 72.3218 446.486 72.3218 444.534C72.3218 443.232 73.6249 441.279 75.5795 441.279C77.5342 441.279 78.8373 442.581 78.8373 444.534Z" fill="#FF5906"/>
<path d="M49.5177 307.854C49.5177 309.156 48.2146 311.109 46.26 311.109C44.3053 311.109 43.0022 309.807 43.0022 307.854C43.0022 306.553 44.3053 304.6 46.26 304.6C48.2146 304.6 49.5177 305.902 49.5177 307.854Z" fill="#FF5906"/>
<path d="M570.106 757.596C570.106 758.898 568.802 760.85 566.848 760.85C565.545 760.85 563.59 759.548 563.59 757.596C563.59 756.294 564.893 754.342 566.848 754.342C568.802 754.342 570.106 755.643 570.106 757.596Z" fill="#FF5906"/>
<path d="M747.327 648.252C747.327 649.554 746.024 651.506 744.069 651.506C742.766 651.506 740.811 650.205 740.811 648.252C740.811 646.951 742.114 644.998 744.069 644.998C746.024 644.998 747.327 646.3 747.327 648.252Z" fill="#FF5906"/>
<path d="M729.083 577.31C729.083 578.612 727.78 580.564 725.826 580.564C723.871 580.564 722.568 579.263 722.568 577.31C722.568 576.008 723.871 574.056 725.826 574.056C727.78 574.056 729.083 576.008 729.083 577.31Z" fill="#FF5906"/>
<path d="M711.491 307.854C711.491 309.156 710.188 311.109 708.234 311.109C706.279 311.109 704.976 309.807 704.976 307.854C704.976 306.553 706.279 304.6 708.234 304.6C710.188 304.6 711.491 305.902 711.491 307.854Z" fill="#FF5906"/>
<path d="M109.46 259.04C109.46 260.342 108.157 262.294 106.202 262.294C104.248 262.294 103.596 260.342 103.596 259.04C103.596 257.738 104.899 255.786 106.854 255.786C108.809 255.786 109.46 257.087 109.46 259.04Z" fill="#FF5906"/>
<path d="M134.871 195.257C134.871 196.558 133.568 198.511 131.613 198.511C130.31 198.511 128.355 197.209 128.355 195.257C128.355 193.304 129.658 192.002 131.613 192.002C133.568 192.002 134.871 193.304 134.871 195.257Z" fill="#FF5906"/>
<path d="M766.873 380.751C766.873 384.656 763.615 387.911 759.706 387.911C755.797 387.911 752.539 384.656 752.539 380.751C752.539 376.846 755.797 373.592 759.706 373.592C763.615 373.592 766.873 376.846 766.873 380.751Z" fill="#FF5906"/>
<path d="M663.277 717.243C663.277 721.148 660.019 724.402 656.11 724.402C652.201 724.402 648.943 721.148 648.943 717.243C648.943 713.338 652.201 710.083 656.11 710.083C660.019 710.083 663.277 713.338 663.277 717.243Z" fill="#FF5906"/>
<path d="M364.868 776.471C364.868 780.376 361.61 783.63 357.701 783.63C353.791 783.63 350.533 780.376 350.533 776.471C350.533 772.566 353.791 769.311 357.701 769.311C361.61 769.311 364.868 772.566 364.868 776.471Z" fill="#FF5906"/>
<path d="M534.27 794.695C534.27 798.6 531.012 801.854 527.103 801.854C523.194 801.854 519.936 798.6 519.936 794.695C519.936 790.79 523.194 787.536 527.103 787.536C531.012 787.536 534.27 790.79 534.27 794.695Z" fill="#FF5906"/>
<path d="M76.2313 614.407C76.2313 618.313 72.9736 621.567 69.0643 621.567C65.155 621.567 61.8972 618.313 61.8972 614.407C61.8972 610.502 65.155 607.248 69.0643 607.248C73.6251 607.248 76.2313 610.502 76.2313 614.407Z" fill="#FF5906"/>
<path d="M86.0048 328.031C86.0048 331.936 82.747 335.19 78.8377 335.19C74.9284 335.19 71.6707 331.936 71.6707 328.031C71.6707 324.126 74.9284 320.872 78.8377 320.872C82.747 320.872 86.0048 324.126 86.0048 328.031Z" fill="#FF5906"/>
<path d="M14.3341 509.62C14.3341 513.525 11.0763 516.78 7.16704 516.78C3.25775 516.78 0 513.525 0 509.62C0 505.715 3.25775 502.461 7.16704 502.461C11.0763 502.461 14.3341 505.715 14.3341 509.62Z" fill="#FF5906"/>
<path d="M181.782 734.816C181.782 738.721 178.525 741.975 174.615 741.975C170.706 741.975 167.448 738.721 167.448 734.816C167.448 730.911 170.706 727.656 174.615 727.656C178.525 728.307 181.782 730.911 181.782 734.816Z" fill="#FF5906"/>
<path d="M490.616 117.806C490.616 121.711 487.359 124.965 483.449 124.965C479.54 124.965 476.282 121.711 476.282 117.806C476.282 113.901 479.54 110.646 483.449 110.646C487.359 110.646 490.616 113.901 490.616 117.806Z" fill="#FF5906"/>
<path d="M239.118 136.679C239.118 140.585 235.861 143.839 231.951 143.839C228.042 143.839 224.784 140.585 224.784 136.679C224.784 132.774 228.042 129.52 231.951 129.52C236.512 129.52 239.118 132.774 239.118 136.679Z" fill="#FF5906"/>
<path d="M594.213 179.635C598.171 179.635 601.38 176.43 601.38 172.476C601.38 168.522 598.171 165.316 594.213 165.316C590.255 165.316 587.046 168.522 587.046 172.476C587.046 176.43 590.255 179.635 594.213 179.635Z" fill="#FF5906"/>
</svg>
