<svg width="729" height="747" viewBox="0 0 729 747" fill="none" xmlns="http://www.w3.org/2000/svg">
<path d="M614.761 579.998C619.322 572.838 623.232 565.028 625.838 557.218C649.294 549.408 665.582 527.929 665.582 501.895C665.582 485.624 659.067 470.654 647.99 460.24C659.067 449.827 665.582 434.857 665.582 418.586C665.582 405.569 661.673 393.853 654.506 384.741L728.131 350.897L662.976 352.198C664.931 345.039 665.582 337.88 665.582 330.069C665.582 294.923 646.036 264.333 617.368 248.061L677.31 189.484L594.563 229.187C594.563 227.885 594.563 225.932 594.563 224.631C594.563 192.739 568.502 166.705 536.576 166.705C535.924 166.705 535.924 166.705 535.272 166.705C530.06 140.019 506.604 120.494 478.588 120.494C477.285 120.494 475.982 120.494 474.678 120.494L486.406 0.736328L430.373 132.86C413.433 116.589 390.629 106.826 365.87 106.826C358.703 106.826 352.187 107.477 345.672 108.778C329.383 93.8087 307.23 85.3476 283.774 85.3476C279.214 85.3476 275.304 85.9984 271.395 85.9984L245.985 0.736328L254.455 89.9036C244.03 93.1578 234.257 99.0155 225.787 105.524C214.71 100.968 202.982 99.0155 190.603 99.0155C171.708 99.0155 154.116 104.873 139.131 113.985L64.854 19.6111L128.054 123.097C109.159 140.019 96.7799 165.403 96.7799 192.739C96.7799 196.644 96.7799 200.549 97.4314 203.803C85.7035 209.661 75.9303 219.424 70.7179 231.139L0.350586 207.708L66.1571 248.061C65.5055 250.665 65.5055 253.268 65.5055 255.872C65.5055 270.191 70.7179 283.208 79.1881 293.621C75.9303 300.781 74.6272 308.591 74.6272 317.052C74.6272 332.673 81.1427 346.992 90.9159 357.405C83.7489 367.168 79.188 378.883 76.5818 390.599L20.5486 406.219L73.3241 407.521C73.3241 408.172 73.3241 408.823 73.3241 409.474C73.3241 435.508 83.7489 458.939 101.341 475.861C98.083 485.624 96.1283 496.037 96.1283 506.451C96.1283 527.279 103.295 546.804 115.023 562.425L20.5486 606.683L141.737 586.506C147.601 589.761 153.465 593.015 159.98 594.968C159.329 598.222 158.677 602.127 158.677 605.381C158.677 637.273 184.739 663.307 216.665 663.307C221.877 663.307 227.09 662.656 231.651 661.355C241.424 678.928 260.319 691.294 282.471 691.294C302.669 691.294 319.61 681.531 330.686 665.911C339.808 671.768 350.233 675.023 361.309 675.023C377.598 675.023 391.932 668.514 402.356 658.101C408.872 663.307 416.691 667.213 424.509 670.467L451.874 746.617L447.313 676.325C451.223 676.975 455.132 676.975 458.39 676.975C496.831 676.975 529.409 654.195 544.394 621.002C558.728 619.7 572.411 615.144 584.139 608.635L677.31 641.829L614.761 579.998Z" fill="#B73502"/>
<g opacity="0.25">
<path opacity="0.25" d="M474.678 658.751C453.829 658.751 434.282 651.592 418.645 640.528C408.22 650.941 393.235 657.45 377.597 657.45C366.521 657.45 356.096 654.195 346.975 648.338C336.55 663.307 318.958 673.721 298.76 673.721C276.607 673.721 257.712 661.355 247.939 643.782C243.378 645.083 238.166 645.734 232.953 645.734C201.028 645.734 174.966 619.7 174.966 587.808C174.966 583.903 175.617 580.649 176.269 577.395C139.13 565.028 112.417 529.882 112.417 488.878C112.417 477.814 114.371 468.051 117.629 458.288C100.037 441.366 89.6126 417.935 89.6126 391.901C89.6126 372.375 95.4766 354.151 105.901 339.181C95.4766 328.768 89.6126 314.449 89.6126 298.828C89.6126 290.367 91.5673 282.557 94.1735 275.398C85.7033 264.984 80.491 251.967 80.491 237.648C80.491 227.885 83.0971 218.773 87.0064 210.963C73.3239 221.377 64.8538 238.299 64.8538 256.523C64.8538 270.842 70.0661 283.859 78.5363 294.272C75.2785 301.432 73.9755 309.242 73.9755 317.703C73.9755 333.324 80.491 347.643 90.2642 358.056C79.8394 373.026 73.9755 391.25 73.9755 410.776C73.9755 436.81 84.4002 460.241 101.992 477.163C98.7343 486.926 96.7797 497.339 96.7797 507.753C96.7797 548.757 123.493 583.903 160.631 596.269C159.98 599.524 159.328 603.429 159.328 606.683C159.328 638.575 185.39 664.609 217.316 664.609C222.529 664.609 227.741 663.958 232.302 662.657C242.075 680.23 260.97 692.596 283.123 692.596C303.321 692.596 320.261 682.833 331.337 667.213C340.459 673.07 350.884 676.325 361.96 676.325C378.249 676.325 392.583 669.816 403.008 659.402C418.645 671.118 438.191 677.626 459.041 677.626C492.27 677.626 521.59 660.053 537.878 634.019C521.59 648.989 499.437 658.751 474.678 658.751Z" fill="#222221"/>
</g>
</svg>
