<svg width="526" height="529" viewBox="0 0 526 529" fill="none" xmlns="http://www.w3.org/2000/svg">
<path d="M506.064 294.397C509.322 287.889 511.277 280.729 511.277 272.919C511.277 254.044 499.549 237.122 483.26 229.962C487.821 220.85 490.427 211.088 490.427 200.674C490.427 169.433 468.275 144.05 438.303 138.192C440.91 130.382 441.561 121.27 441.561 112.808C441.561 61.3908 399.862 19.0852 347.738 19.0852C328.843 19.0852 311.903 24.2921 296.917 34.0549C285.189 21.0378 268.901 13.2276 250.006 13.2276C235.672 13.2276 221.989 18.4344 211.564 26.2447C194.624 9.97328 171.82 0.210449 147.061 0.210449C96.24 0.210449 54.5409 40.5635 53.2378 91.3302C25.8727 98.4896 5.67467 123.222 5.67467 152.511C5.67467 166.179 9.58396 178.545 17.4025 188.959C6.97776 200.023 0.46228 215.644 0.46228 231.915C0.46228 256.648 14.7964 278.126 34.9944 288.539C33.0397 294.397 32.3882 300.255 32.3882 306.763C32.3882 314.574 33.6913 322.384 36.2975 329.543C27.1758 340.608 21.9634 354.276 21.9634 369.246C21.9634 403.09 48.0254 430.426 81.2544 432.379C81.2544 433.029 81.2544 433.68 81.2544 434.331C81.2544 485.749 122.954 528.054 175.077 528.054C205.7 528.054 232.414 513.735 249.354 491.606C255.87 492.908 261.733 493.559 268.901 493.559C283.235 493.559 296.266 490.305 308.645 484.447C323.631 494.861 342.526 501.369 362.724 501.369C414.196 501.369 456.547 459.714 456.547 407.646C456.547 406.344 456.547 405.043 456.547 403.741C458.501 403.741 460.456 403.741 462.411 403.741C497.594 403.741 525.611 375.103 525.611 340.608C526.263 323.035 518.444 306.113 506.064 294.397Z" fill="#FF5906"/>
<g opacity="0.25">
<path opacity="0.25" d="M193.321 515.036C141.849 515.036 99.4979 473.382 99.4979 421.313C99.4979 420.662 99.4979 420.011 99.4979 419.361C66.2689 417.408 40.2069 390.072 40.2069 356.228C40.2069 341.258 45.4193 326.939 54.541 316.525C51.9348 309.366 50.6317 302.206 50.6317 293.745C50.6317 287.237 51.2832 281.379 53.2379 275.521C32.3883 265.108 18.7058 243.63 18.7058 218.897C18.7058 202.626 25.2213 187.005 35.6461 175.941C28.479 165.527 23.9182 153.161 23.9182 139.493C23.9182 123.221 30.4337 108.252 40.2069 97.187C20.6604 108.252 6.97789 129.079 6.97789 153.161C6.97789 166.829 10.8872 179.195 18.7058 189.608C8.28098 200.673 1.7655 216.294 1.7655 232.565C1.7655 257.297 16.0996 278.776 36.2976 289.189C34.343 295.047 33.6914 300.905 33.6914 307.413C33.6914 315.224 34.9945 323.034 37.6007 330.193C28.479 341.258 23.2666 354.926 23.2666 369.895C23.2666 403.74 49.3286 431.076 82.5576 433.028C82.5576 433.679 82.5576 434.33 82.5576 434.981C82.5576 486.399 124.257 528.704 176.381 528.704C202.443 528.704 225.247 518.291 242.187 501.368C227.853 509.829 211.564 515.036 193.321 515.036Z" fill="#222221"/>
</g>
</svg>
