<svg width="961" height="926" viewBox="0 0 961 926" fill="none" xmlns="http://www.w3.org/2000/svg">
<path d="M762.84 307.039C970.888 120.858 495.351 -57.3996 481.481 184.239C477.518 -128.703 -105.015 13.9036 178.326 247.62C-57.4611 229.794 -59.4425 618 174.363 604.136C57.4604 752.684 396.281 932.923 467.611 766.549C495.351 853.697 590.458 946.788 703.398 921.039C818.32 893.31 933.241 756.646 802.469 665.536C1024.39 685.342 1012.5 251.581 762.84 307.039Z" fill="url(#paint0_radial_100:3)"/>
<path d="M762.84 307.039C859.929 219.891 806.431 134.723 721.231 93.1294C802.468 158.491 778.691 259.504 709.342 316.942C725.193 312.981 737.082 312.981 754.914 332.788C790.58 372.4 758.877 388.246 758.877 388.246C826.245 394.188 901.538 431.82 887.669 509.065C877.762 564.523 814.357 619.981 758.877 629.884C748.97 631.865 739.063 633.846 729.156 633.846C754.914 705.149 750.952 788.336 659.807 806.162C586.495 820.026 532.997 776.452 505.257 713.071C497.332 697.226 491.388 679.401 485.443 663.555C406.187 683.362 317.024 649.691 279.377 570.465C273.433 558.581 269.47 546.697 265.507 532.833C227.861 520.949 186.251 497.181 168.419 459.549C148.604 415.975 138.697 362.497 170.4 318.923C188.233 295.155 208.047 275.349 231.823 261.484C202.102 231.775 184.27 196.123 186.251 152.549C192.195 55.4971 271.452 5.98098 358.633 11.9229C204.084 -37.5932 -17.8336 81.2455 180.307 243.658C-57.4617 229.794 -59.4431 618 174.363 604.136C57.4598 752.684 396.28 932.923 467.611 766.549C495.35 853.697 590.458 946.788 703.398 921.039C818.319 893.31 933.241 756.646 802.468 665.536C1024.39 685.342 1012.5 251.581 762.84 307.039Z" fill="url(#paint1_radial_100:3)"/>
<path d="M184.27 35.6908C217.954 15.8844 255.6 5.98114 295.229 4.0005C154.549 -1.94144 11.8877 103.033 174.363 241.678C178.326 239.697 180.307 237.717 184.27 237.717C164.456 213.949 148.605 186.22 136.716 156.51C118.884 110.955 144.642 57.4779 184.27 35.6908Z" fill="#826251"/>
<path d="M802.469 303.078C804.45 303.078 806.431 305.059 806.431 305.059C832.19 314.962 861.911 334.768 879.743 354.575C925.316 408.052 949.092 477.375 913.427 542.736C879.743 606.117 826.245 635.826 768.785 643.749C766.803 645.73 762.84 645.73 760.859 647.71C788.599 699.207 788.599 760.607 741.045 808.143C697.454 853.697 626.124 857.659 572.626 827.949C525.072 802.201 505.258 752.685 473.555 705.149C414.113 740.801 317.024 748.723 255.601 685.343C221.917 651.672 206.066 606.117 204.084 560.562C144.642 544.717 93.1255 511.046 73.3115 451.627C43.5904 362.498 95.1069 287.233 168.419 247.62C-57.4612 243.659 -55.4799 618.001 174.363 604.136C57.4602 752.685 396.281 932.923 467.611 766.549C495.351 853.697 590.458 946.788 703.398 921.039C818.32 893.31 933.241 756.646 802.469 665.536C1012.5 685.343 1012.5 297.136 802.469 303.078Z" fill="url(#paint2_radial_100:3)"/>
<path d="M451.759 152.549C449.778 91.1493 376.466 39.6525 301.173 55.4977C237.768 67.3815 206.065 146.607 235.786 204.046C221.916 63.4203 402.224 37.6719 451.759 152.549Z" fill="#FDEA81"/>
<path d="M503.276 679.4C503.276 740.8 574.607 794.277 649.9 782.394C713.305 772.49 748.97 695.245 721.231 637.806C729.156 778.432 546.867 796.258 503.276 679.4Z" fill="#FFEB5E"/>
<path d="M273.433 800.22C336.838 831.91 437.89 812.104 455.723 744.762C356.652 831.91 152.568 695.246 190.214 594.233C146.623 643.749 138.698 732.878 273.433 800.22Z" fill="#876550"/>
<path d="M808.413 584.329C802.468 588.29 796.524 592.251 790.58 596.213C796.524 592.251 802.468 588.29 808.413 584.329Z" fill="#FFEB5E"/>
<path d="M808.413 584.329C842.097 562.542 877.762 534.813 871.818 487.277C865.874 443.703 776.711 390.226 737.083 427.858C772.748 380.323 725.194 326.845 675.659 344.671C709.343 301.097 743.027 269.406 741.045 208.006C741.045 182.258 731.138 156.51 715.287 136.703C693.492 112.935 669.715 99.0709 647.919 112.935C705.38 116.897 711.324 204.045 705.38 237.716C697.454 287.232 679.622 320.903 643.957 354.574C673.678 350.613 701.417 356.555 721.231 376.361C745.008 404.09 731.138 419.935 715.287 445.684C760.859 447.664 804.45 429.839 838.134 475.394C861.911 511.045 842.097 558.581 808.413 584.329Z" fill="#FFEB5E"/>
<path d="M711.324 853.696C649.9 875.483 552.811 863.599 489.406 768.528C497.332 802.199 529.034 839.831 552.811 865.58C584.514 897.27 675.658 926.98 754.915 879.444C838.134 827.947 865.873 740.799 800.487 689.302C802.468 752.683 786.617 827.947 711.324 853.696Z" fill="#876550"/>
<path opacity="0.69" d="M643.957 439.742C643.957 439.742 665.752 330.806 584.515 340.71C651.882 263.464 479.5 130.761 429.965 255.542C370.523 128.78 289.285 206.026 295.23 202.064C213.992 261.484 269.471 328.826 263.527 326.845C172.383 332.787 229.843 481.335 311.081 467.471C299.192 572.445 402.225 562.542 475.537 568.484C422.039 518.968 358.635 433.8 429.965 392.206C481.482 360.516 511.203 431.819 511.203 431.819C566.682 386.264 639.994 392.206 586.496 469.451C649.901 469.451 717.269 526.89 703.399 586.31C770.767 544.716 699.436 439.742 643.957 439.742Z" fill="#FDF18A"/>
<path d="M445.815 293.175C469.592 267.426 491.388 235.736 529.034 257.523C558.756 273.368 568.663 311 566.681 340.71H570.644C592.439 301.097 564.7 249.601 529.034 227.813C471.574 196.123 463.648 255.542 445.815 293.175Z" fill="#FFED93"/>
<path d="M400.243 275.349C410.15 229.794 334.857 188.2 301.173 223.852C269.47 257.523 273.433 318.923 309.098 348.633L315.043 350.613C291.266 316.942 360.615 223.852 400.243 275.349Z" fill="#FFED93"/>
<defs>
<radialGradient id="paint0_radial_100:3" cx="0" cy="0" r="1" gradientUnits="userSpaceOnUse" gradientTransform="translate(479.943 464.017) scale(470.172 469.991)">
<stop stop-color="#E5B688"/>
<stop offset="1" stop-color="#BC936D"/>
</radialGradient>
<radialGradient id="paint1_radial_100:3" cx="0" cy="0" r="1" gradientUnits="userSpaceOnUse" gradientTransform="translate(479.943 464.041) scale(470.16 469.979)">
<stop stop-color="#D28F75"/>
<stop offset="1" stop-color="#9F7263"/>
</radialGradient>
<radialGradient id="paint2_radial_100:3" cx="0" cy="0" r="1" gradientUnits="userSpaceOnUse" gradientTransform="translate(479.924 585.318) scale(415.354 415.195)">
<stop stop-color="#A48C66"/>
<stop offset="1" stop-color="#937C55"/>
</radialGradient>
</defs>
</svg>
